<svg width="882" height="154" viewBox="0 0 882 154" fill="none" xmlns="http://www.w3.org/2000/svg">
<path d="M37.056 101.96C27.456 101.96 19.328 98.6 12.672 91.88C6.08 85.16 2.784 77 2.784 67.4C2.784 57.8 6.08 49.64 12.672 42.92C19.328 36.2 27.456 32.84 37.056 32.84C43.52 32.84 49.408 34.472 54.72 37.736C60.096 41 64.224 45.352 67.104 50.792L52.608 58.184C51.008 55.432 48.832 53.256 46.08 51.656C43.328 49.992 40.288 49.16 36.96 49.16C31.968 49.16 27.744 50.952 24.288 54.536C20.832 58.056 19.104 62.344 19.104 67.4C19.104 72.456 20.832 76.776 24.288 80.36C27.744 83.88 31.968 85.64 36.96 85.64C40.352 85.64 43.424 84.808 46.176 83.144C48.992 81.416 51.168 79.144 52.704 76.328L67.296 83.72C64.416 89.224 60.288 93.64 54.912 96.968C49.536 100.296 43.584 101.96 37.056 101.96ZM92.625 101.864C86.353 101.864 81.137 99.528 76.977 94.856C72.817 90.12 70.737 84.232 70.737 77.192C70.737 70.152 72.817 64.296 76.977 59.624C81.137 54.952 86.353 52.616 92.625 52.616C98.833 52.616 103.697 54.728 107.217 58.952V53.48H122.577V101H107.217V95.528C103.633 99.752 98.769 101.864 92.625 101.864ZM88.977 85.352C91.025 87.464 93.553 88.52 96.561 88.52C99.569 88.52 102.097 87.464 104.145 85.352C106.193 83.176 107.217 80.456 107.217 77.192C107.217 73.928 106.193 71.24 104.145 69.128C102.097 66.952 99.569 65.864 96.561 65.864C93.553 65.864 91.025 66.952 88.977 69.128C86.993 71.24 86.001 73.928 86.001 77.192C86.001 80.456 86.993 83.176 88.977 85.352ZM131.822 101V53.48H147.182V59.432C150.894 54.824 156.974 52.52 165.422 52.52V68.84C163.182 67.56 160.718 66.92 158.03 66.92C155.086 66.92 152.526 68.136 150.35 70.568C148.238 72.936 147.182 76.264 147.182 80.552V101H131.822ZM193.389 51.848C200.493 51.848 206.253 54.12 210.669 58.664C215.085 63.144 217.325 69.352 217.389 77.288C217.389 79.08 217.357 80.488 217.293 81.512H182.541C183.245 84.264 184.557 86.344 186.477 87.752C188.461 89.096 190.765 89.768 193.389 89.768C198.125 89.768 201.805 88.136 204.429 84.872L213.741 92.648C211.565 95.656 208.621 98.024 204.909 99.752C201.197 101.416 197.389 102.248 193.485 102.248C186.317 102.248 180.301 99.848 175.437 95.048C170.637 90.184 168.237 84.264 168.237 77.288C168.237 70.056 170.637 64.008 175.437 59.144C180.237 54.28 186.221 51.848 193.389 51.848ZM193.485 63.752C188.109 63.752 184.557 66.408 182.829 71.72H203.469C201.933 66.408 198.605 63.752 193.485 63.752ZM223.51 125V53.48H238.87V59.144C242.582 54.792 247.414 52.616 253.366 52.616C259.702 52.616 264.918 54.984 269.014 59.72C273.174 64.392 275.254 70.248 275.254 77.288C275.254 84.264 273.174 90.12 269.014 94.856C264.918 99.528 259.702 101.864 253.366 101.864C247.542 101.864 242.71 99.72 238.87 95.432V125H223.51ZM249.526 88.52C252.534 88.52 255.03 87.464 257.014 85.352C258.998 83.24 259.99 80.552 259.99 77.288C259.99 73.96 258.998 71.24 257.014 69.128C255.03 66.952 252.534 65.864 249.526 65.864C246.518 65.864 243.99 66.952 241.942 69.128C239.894 71.304 238.87 74.024 238.87 77.288C238.87 80.552 239.862 83.24 241.846 85.352C243.894 87.464 246.454 88.52 249.526 88.52ZM299.964 101.192C294.46 101.192 290.076 99.624 286.812 96.488C283.548 93.288 281.916 88.936 281.916 83.432V29H297.276V80.456C297.276 82.696 297.916 84.36 299.196 85.448C300.476 86.536 302.044 87.08 303.9 87.08C304.86 87.08 305.724 86.984 306.492 86.792L308.028 100.136C305.02 100.84 302.332 101.192 299.964 101.192ZM332.156 101.864C325.884 101.864 320.668 99.528 316.508 94.856C312.348 90.12 310.268 84.232 310.268 77.192C310.268 70.152 312.348 64.296 316.508 59.624C320.668 54.952 325.884 52.616 332.156 52.616C338.364 52.616 343.228 54.728 346.748 58.952V53.48H362.108V101H346.748V95.528C343.164 99.752 338.3 101.864 332.156 101.864ZM328.508 85.352C330.556 87.464 333.084 88.52 336.092 88.52C339.1 88.52 341.628 87.464 343.676 85.352C345.724 83.176 346.748 80.456 346.748 77.192C346.748 73.928 345.724 71.24 343.676 69.128C341.628 66.952 339.1 65.864 336.092 65.864C333.084 65.864 330.556 66.952 328.508 69.128C326.524 71.24 325.532 73.928 325.532 77.192C325.532 80.456 326.524 83.176 328.508 85.352ZM394.019 102.344C386.979 102.344 380.931 99.912 375.875 95.048C370.819 90.12 368.291 84.168 368.291 77.192C368.291 70.216 370.819 64.232 375.875 59.24C380.931 54.248 386.979 51.752 394.019 51.752C398.179 51.752 402.083 52.712 405.731 54.632C409.443 56.488 412.483 59.016 414.851 62.216L402.659 71.144C400.739 68.008 397.859 66.376 394.019 66.248C390.947 66.184 388.387 67.208 386.339 69.32C384.291 71.432 383.267 74.088 383.267 77.288C383.267 80.424 384.291 83.016 386.339 85.064C388.387 87.048 390.947 88.072 394.019 88.136C395.811 88.2 397.475 87.784 399.011 86.888C400.611 85.992 401.859 84.776 402.755 83.24L414.755 92.072C412.387 95.272 409.379 97.8 405.731 99.656C402.083 101.448 398.179 102.344 394.019 102.344ZM442.389 51.848C449.493 51.848 455.253 54.12 459.669 58.664C464.085 63.144 466.325 69.352 466.389 77.288C466.389 79.08 466.357 80.488 466.293 81.512H431.541C432.245 84.264 433.557 86.344 435.477 87.752C437.461 89.096 439.765 89.768 442.389 89.768C447.125 89.768 450.805 88.136 453.429 84.872L462.741 92.648C460.565 95.656 457.621 98.024 453.909 99.752C450.197 101.416 446.389 102.248 442.485 102.248C435.317 102.248 429.301 99.848 424.437 95.048C419.637 90.184 417.237 84.264 417.237 77.288C417.237 70.056 419.637 64.008 424.437 59.144C429.237 54.28 435.221 51.848 442.389 51.848ZM442.485 63.752C437.109 63.752 433.557 66.408 431.829 71.72H452.469C450.933 66.408 447.605 63.752 442.485 63.752Z" fill="url(#paint0_linear_602_14)"/>
<path d="M537.2 69.78C543.2 72.66 546.2 77.52 546.2 84.36C546.2 89.94 544.25 94.29 540.35 97.41C536.51 100.47 531.68 102 525.86 102H500.12V39H524.51C530.39 39 535.19 40.53 538.91 43.59C542.69 46.59 544.58 50.85 544.58 56.37C544.58 62.37 542.12 66.84 537.2 69.78ZM509.93 47.55V66.45H524.51C527.57 66.45 530.06 65.7 531.98 64.2C533.96 62.7 534.95 60.3 534.95 57C534.95 53.7 533.96 51.3 531.98 49.8C530 48.3 527.51 47.55 524.51 47.55H509.93ZM525.59 93.45C528.53 93.45 531.05 92.67 533.15 91.11C535.31 89.49 536.39 87.03 536.39 83.73C536.39 80.49 535.31 78.09 533.15 76.53C531.05 74.91 528.53 74.1 525.59 74.1H509.93V93.45H525.59ZM573.221 102.63C567.341 102.63 562.631 100.74 559.091 96.96C555.551 93.12 553.781 87.63 553.781 80.49V57.45H563.231V79.59C563.231 84.51 564.311 88.23 566.471 90.75C568.631 93.21 571.421 94.44 574.841 94.44C578.561 94.44 581.531 93.12 583.751 90.48C586.031 87.78 587.171 84.03 587.171 79.23V57.45H596.621V102H587.261V96.33H587.081C583.481 100.53 578.861 102.63 573.221 102.63ZM623.814 103.53C619.194 103.53 615.054 102.48 611.394 100.38C607.734 98.22 605.184 95.13 603.744 91.11L611.934 88.5C614.034 93.48 618.024 95.97 623.904 95.97C627.024 95.97 629.484 95.31 631.284 93.99C633.084 92.67 633.984 90.9 633.984 88.68C633.984 86.58 632.904 85.17 630.744 84.45C628.644 83.73 625.674 83.22 621.834 82.92C618.054 82.62 615.144 82.05 613.104 81.21C608.064 79.17 605.544 75.54 605.544 70.32C605.544 66.42 607.224 63.12 610.584 60.42C613.944 57.66 618.114 56.28 623.094 56.28C627.834 56.28 631.764 57.39 634.884 59.61C638.004 61.83 640.044 64.74 641.004 68.34L632.904 70.59C631.584 65.85 628.344 63.48 623.184 63.48C620.544 63.48 618.384 64.14 616.704 65.46C615.084 66.78 614.274 68.34 614.274 70.14C614.274 71.94 615.054 73.32 616.614 74.28C618.234 75.24 620.064 75.81 622.104 75.99C624.204 76.17 626.634 76.47 629.394 76.89C632.154 77.25 634.344 77.79 635.964 78.51C640.764 80.49 643.164 83.91 643.164 88.77C643.164 93.21 641.364 96.78 637.764 99.48C634.224 102.18 629.574 103.53 623.814 103.53ZM658.846 47.73C657.766 48.81 656.476 49.35 654.976 49.35C653.476 49.35 652.186 48.81 651.106 47.73C650.086 46.65 649.576 45.36 649.576 43.86C649.576 42.42 650.086 41.19 651.106 40.17C652.186 39.09 653.476 38.55 654.976 38.55C656.476 38.55 657.766 39.09 658.846 40.17C659.926 41.19 660.466 42.42 660.466 43.86C660.466 45.36 659.926 46.65 658.846 47.73ZM650.386 102V57.45H659.656V102H650.386ZM669.726 102V57.45H679.176V63.21C682.716 58.95 687.366 56.82 693.126 56.82C699.006 56.82 703.716 58.74 707.256 62.58C710.856 66.36 712.656 71.82 712.656 78.96V102H703.206V79.77C703.206 74.85 702.126 71.16 699.966 68.7C697.806 66.24 694.986 65.01 691.506 65.01C687.786 65.01 684.786 66.36 682.506 69.06C680.286 71.7 679.176 75.39 679.176 80.13V102H669.726ZM742.901 56.19C749.441 56.19 754.811 58.26 759.011 62.4C763.211 66.54 765.371 72.06 765.491 78.96C765.491 80.34 765.461 81.42 765.401 82.2H728.321C728.801 86.22 730.391 89.43 733.091 91.83C735.851 94.17 739.121 95.34 742.901 95.34C748.601 95.34 753.011 93.33 756.131 89.31L761.891 94.17C759.851 96.99 757.121 99.18 753.701 100.74C750.341 102.3 746.741 103.08 742.901 103.08C736.301 103.08 730.751 100.83 726.251 96.33C721.811 91.83 719.591 86.31 719.591 79.77C719.591 73.11 721.811 67.53 726.251 63.03C730.691 58.47 736.241 56.19 742.901 56.19ZM742.901 63.57C739.181 63.57 736.001 64.71 733.361 66.99C730.781 69.21 729.161 72.21 728.501 75.99H757.031C756.251 72.09 754.601 69.06 752.081 66.9C749.621 64.68 746.561 63.57 742.901 63.57ZM789.928 103.53C785.308 103.53 781.168 102.48 777.508 100.38C773.848 98.22 771.298 95.13 769.858 91.11L778.048 88.5C780.148 93.48 784.138 95.97 790.018 95.97C793.138 95.97 795.598 95.31 797.398 93.99C799.198 92.67 800.098 90.9 800.098 88.68C800.098 86.58 799.018 85.17 796.858 84.45C794.758 83.73 791.788 83.22 787.948 82.92C784.168 82.62 781.258 82.05 779.218 81.21C774.178 79.17 771.658 75.54 771.658 70.32C771.658 66.42 773.338 63.12 776.698 60.42C780.058 57.66 784.228 56.28 789.208 56.28C793.948 56.28 797.878 57.39 800.998 59.61C804.118 61.83 806.158 64.74 807.118 68.34L799.018 70.59C797.698 65.85 794.458 63.48 789.298 63.48C786.658 63.48 784.498 64.14 782.818 65.46C781.198 66.78 780.388 68.34 780.388 70.14C780.388 71.94 781.168 73.32 782.728 74.28C784.348 75.24 786.178 75.81 788.218 75.99C790.318 76.17 792.748 76.47 795.508 76.89C798.268 77.25 800.458 77.79 802.078 78.51C806.878 80.49 809.278 83.91 809.278 88.77C809.278 93.21 807.478 96.78 803.878 99.48C800.338 102.18 795.688 103.53 789.928 103.53ZM833.17 103.53C828.55 103.53 824.41 102.48 820.75 100.38C817.09 98.22 814.54 95.13 813.1 91.11L821.29 88.5C823.39 93.48 827.38 95.97 833.26 95.97C836.38 95.97 838.84 95.31 840.64 93.99C842.44 92.67 843.34 90.9 843.34 88.68C843.34 86.58 842.26 85.17 840.1 84.45C838 83.73 835.03 83.22 831.19 82.92C827.41 82.62 824.5 82.05 822.46 81.21C817.42 79.17 814.9 75.54 814.9 70.32C814.9 66.42 816.58 63.12 819.94 60.42C823.3 57.66 827.47 56.28 832.45 56.28C837.19 56.28 841.12 57.39 844.24 59.61C847.36 61.83 849.4 64.74 850.36 68.34L842.26 70.59C840.94 65.85 837.7 63.48 832.54 63.48C829.9 63.48 827.74 64.14 826.06 65.46C824.44 66.78 823.63 68.34 823.63 70.14C823.63 71.94 824.41 73.32 825.97 74.28C827.59 75.24 829.42 75.81 831.46 75.99C833.56 76.17 835.99 76.47 838.75 76.89C841.51 77.25 843.7 77.79 845.32 78.51C850.12 80.49 852.52 83.91 852.52 88.77C852.52 93.21 850.72 96.78 847.12 99.48C843.58 102.18 838.93 103.53 833.17 103.53Z" fill="#5C5C5C" fill-opacity="0.75"/>
<defs>
<linearGradient id="paint0_linear_602_14" x1="-173.564" y1="153" x2="426.134" y2="153" gradientUnits="userSpaceOnUse">
<stop stop-color="#244CB8"/>
<stop offset="1" stop-color="#38E2FE"/>
</linearGradient>
</defs>
</svg>
